<svg width="60" height="60" viewBox="0 0 60 60" fill="none" xmlns="http://www.w3.org/2000/svg">
<path d="M15.0739 48.503C14.9375 49.877 15.9407 51.1013 17.3147 51.2378C18.6887 51.3743 19.9131 50.371 20.0495 48.997L15.0739 48.503ZM39.9505 48.997C40.087 50.371 41.3112 51.3743 42.6852 51.2378C44.0592 51.1013 45.0625 49.877 44.926 48.503L39.9505 48.997ZM50 30C50 41.0458 41.0458 50 30 50V55C43.807 55 55 43.807 55 30H50ZM30 50C18.9543 50 10 41.0458 10 30H5C5 43.807 16.1929 55 30 55V50ZM10 30C10 18.9543 18.9543 10 30 10V5C16.1929 5 5 16.1929 5 30H10ZM30 10C41.0458 10 50 18.9543 50 30H55C55 16.1929 43.807 5 30 5V10ZM32.5 25C32.5 26.3807 31.3807 27.5 30 27.5V32.5C34.1423 32.5 37.5 29.1423 37.5 25H32.5ZM30 27.5C28.6193 27.5 27.5 26.3807 27.5 25H22.5C22.5 29.1423 25.8577 32.5 30 32.5V27.5ZM27.5 25C27.5 23.6193 28.6193 22.5 30 22.5V17.5C25.8577 17.5 22.5 20.8579 22.5 25H27.5ZM30 22.5C31.3807 22.5 32.5 23.6193 32.5 25H37.5C37.5 20.8579 34.1423 17.5 30 17.5V22.5ZM20.0495 48.997C20.5509 43.9463 24.8162 40 30 40V35C22.2205 35 15.8268 40.9202 15.0739 48.503L20.0495 48.997ZM30 40C35.1837 40 39.449 43.9463 39.9505 48.997L44.926 48.503C44.1732 40.9202 37.7795 35 30 35V40Z" fill="#0468BF"/>
</svg>
